<?xml version="1.0" encoding="UTF-8"?>
<svg xmlns="http://www.w3.org/2000/svg" xmlns:xlink="http://www.w3.org/1999/xlink" width="140px" height="140px" viewBox="0 0 140 140" version="1.1">
<g id="surface1">
<path style=" stroke:none;fill-rule:evenodd;fill:rgb(89.803922%,20.784314%,67.058824%);fill-opacity:1;" d="M 140.042969 70.019531 C 140.042969 108.691406 108.691406 140.042969 70.019531 140.042969 C 31.347656 140.042969 0 108.691406 0 70.019531 C 0 31.347656 31.347656 0 70.019531 0 C 108.691406 0 140.042969 31.347656 140.042969 70.019531 Z M 140.042969 70.019531 "/>
<path style=" stroke:none;fill-rule:evenodd;fill:rgb(100%,100%,100%);fill-opacity:1;" d="M 76.824219 39.316406 L 93.164062 48.765625 C 95.894531 45.953125 100.390625 45.828125 103.246094 48.515625 C 103.707031 48.976562 104.128906 49.523438 104.507812 50.109375 C 106.4375 53.511719 105.261719 57.882812 101.859375 59.8125 C 101.273438 60.148438 100.640625 60.402344 100.011719 60.570312 L 100.011719 79.472656 C 103.792969 80.355469 106.144531 84.175781 105.21875 88 C 105.09375 88.671875 104.800781 89.300781 104.464844 89.929688 C 102.492188 93.292969 98.164062 94.46875 94.761719 92.492188 C 94.089844 92.113281 93.5 91.652344 92.996094 91.066406 L 76.742188 100.472656 C 77.960938 104.210938 75.945312 108.203125 72.246094 109.464844 C 71.492188 109.671875 70.777344 109.800781 70.019531 109.800781 C 66.074219 109.800781 62.921875 106.648438 62.921875 102.742188 C 62.921875 102.027344 63.007812 101.355469 63.214844 100.683594 L 46.835938 91.273438 C 44.105469 94.089844 39.609375 94.214844 36.796875 91.484375 C 33.9375 88.796875 33.855469 84.300781 36.542969 81.445312 C 37.507812 80.480469 38.6875 79.765625 40.03125 79.472656 L 40.03125 60.570312 C 36.207031 59.644531 33.855469 55.78125 34.78125 52 C 34.949219 51.328125 35.199219 50.699219 35.535156 50.109375 C 37.507812 46.707031 41.835938 45.53125 45.238281 47.507812 C 45.828125 47.84375 46.371094 48.261719 46.835938 48.765625 L 63.214844 39.316406 C 62.082031 35.535156 64.222656 31.585938 68.003906 30.496094 C 68.636719 30.285156 69.308594 30.199219 70.019531 30.199219 C 73.925781 30.199219 77.121094 33.351562 77.121094 37.300781 C 77.121094 37.972656 76.992188 38.6875 76.824219 39.316406 Z M 75.101562 42.257812 C 75.019531 42.296875 74.976562 42.382812 74.894531 42.425781 L 96.359375 79.554688 C 96.441406 79.515625 96.527344 79.515625 96.609375 79.472656 L 96.609375 60.527344 C 92.828125 59.605469 90.519531 55.738281 91.441406 51.960938 C 91.441406 51.875 91.484375 51.792969 91.527344 51.707031 Z M 65.105469 42.425781 L 64.898438 42.214844 L 48.515625 51.707031 C 49.566406 55.445312 47.421875 59.394531 43.640625 60.484375 C 43.558594 60.484375 43.472656 60.527344 43.390625 60.527344 L 43.390625 79.472656 L 43.683594 79.554688 Z M 71.996094 44.105469 C 70.691406 44.484375 69.308594 44.484375 68.046875 44.105469 L 46.625 81.234375 C 47.589844 82.160156 48.261719 83.378906 48.597656 84.679688 L 91.402344 84.679688 C 91.738281 83.378906 92.453125 82.160156 93.417969 81.234375 Z M 75.273438 97.953125 L 91.570312 88.542969 C 91.484375 88.375 91.441406 88.207031 91.441406 88.039062 L 48.597656 88.039062 L 48.515625 88.335938 L 64.898438 97.785156 C 66.199219 96.441406 68.003906 95.644531 70.019531 95.644531 C 72.078125 95.644531 73.96875 96.527344 75.273438 97.953125 Z M 75.273438 97.953125 "/>
</g>
</svg>
